<svg xmlns="http://www.w3.org/2000/svg" viewBox="0 0 48 48" width="48" height="48">
    <path fill="#d4d4d4" d="M8.256 42.166c-0.33 -0.716 -0.77 -1.706 -0.992 -2.2l-0.33 -0.936 -1.1 1.21 -1.1 1.21 -0.11 -2.31c-0.164 -3.3 0.11 -6.712 0.66 -9.134 1.266 -5.392 5.228 -10.29 10.344 -12.876l1.156 -0.55 -0.276 -0.824c-0.164 -0.44 -0.33 -1.376 -0.384 -1.98l-0.11 -1.156 -1.156 -0.11c-1.76 -0.166 -2.696 -0.66 -3.3 -1.926 -0.332 -0.66 -0.332 -0.77 -0.22 -2.532 0.108 -2.31 0.274 -2.806 0.99 -3.576 0.88 -0.99 1.484 -1.156 3.686 -1.046 1.596 0.11 1.926 0.166 2.64 0.496 0.44 0.22 0.826 0.44 0.88 0.44s0.552 -0.606 1.156 -1.43l1.046 -1.486 0.66 0.384c0.386 0.22 0.826 0.496 1.046 0.606l0.384 0.22 -0.33 0.826c-0.164 0.44 -0.384 1.21 -0.44 1.596l-0.11 0.77 0.936 0.11c3.356 0.33 5.888 2.366 6.822 5.446 0.276 0.992 0.276 2.916 0 3.852 -0.274 0.88 -0.274 0.936 -0.054 0.936 0.384 0 2.97 1.266 4.016 1.926 2.036 1.32 4.4 3.63 5.722 5.612 2.476 3.686 3.52 7.702 3.08 12.104 -0.22 2.64 -0.714 4.732 -1.594 6.768l-0.33 0.77h-2.752l0.66 -1.32c0.716 -1.43 1.266 -3.412 1.54 -5.172 0.166 -1.21 0.22 -4.512 0.056 -5.118l-0.11 -0.384 -0.714 0.77c-1.76 1.926 -4.348 2.476 -7.814 1.54 -2.972 -0.77 -4.18 -0.934 -6.988 -0.934 -2.146 0 -2.86 0.054 -4.016 0.33 -3.192 0.714 -5.448 1.76 -8.584 4.016 -1.156 0.826 -2.09 1.486 -2.146 1.486s0.11 -0.55 0.33 -1.266 0.606 -1.87 0.826 -2.64l0.44 -1.376 -0.496 0.494c-0.274 0.276 -1.044 1.046 -1.704 1.76l-1.156 1.266 0.274 1.046c0.33 1.376 1.1 3.08 1.926 4.346 0.33 0.552 0.606 0.992 0.606 1.046s-0.66 0.056 -1.43 0.056H8.86zm4.84 -13.316c2.642 -2.806 4.788 -5.06 4.844 -5.06 0.054 0.054 -0.22 0.88 -0.496 1.814 -1.816 5.722 -2.2 6.822 -2.146 6.88 0 0 0.66 -0.22 1.376 -0.498 4.676 -2.036 10.124 -2.31 15.9 -0.77 2.588 0.66 3.578 0.66 4.844 0 0.714 -0.384 0.99 -0.604 1.32 -1.154 0.604 -0.936 0.66 -2.256 0.274 -3.468 -0.934 -2.64 -4.566 -6.052 -7.978 -7.538 -1.76 -0.77 -1.87 -0.77 -2.256 -0.384l-0.33 0.33 1.43 1.76c0.772 0.936 1.596 1.98 1.706 2.256 0.33 0.66 0.386 1.706 0.056 2.366 -0.44 0.936 -1.76 1.596 -2.806 1.376 -0.44 -0.11 -0.606 -0.056 -1.046 0.274 -1.21 0.88 -2.53 0.66 -3.632 -0.66 -0.88 -0.99 -1.1 -1.484 -1.154 -2.476 0 -0.494 -0.166 -1.1 -0.276 -1.32 -0.164 -0.33 -0.22 -0.716 -0.22 -1.21l0.056 -0.77 -0.716 -0.166c-0.99 -0.274 -2.146 -0.826 -2.806 -1.32 -0.33 -0.22 -0.606 -0.44 -0.716 -0.44s-0.824 0.33 -1.596 0.714c-5.336 2.752 -8.802 7.868 -9.354 13.646 -0.054 0.55 -0.11 1.266 -0.164 1.54l-0.056 0.496 0.606 -0.606c0.276 -0.274 2.696 -2.806 5.338 -5.612m14.25 -4.072c0.496 -0.384 0.936 -0.714 1.046 -0.714 0.054 0 0.22 0.164 0.384 0.384 0.276 0.44 0.772 0.44 0.992 0.056 0.164 -0.276 0.164 -0.33 -3.082 -4.292 -1.926 -2.366 -2.312 -2.75 -2.586 -2.75 -0.66 0.054 -0.496 0.55 0.55 1.814l0.99 1.212 -0.55 0.44c-0.606 0.55 -0.66 0.66 -0.274 0.99 0.274 0.274 0.33 0.22 0.88 -0.166l0.604 -0.384 0.386 0.33c0.22 0.164 0.33 0.44 0.33 0.494 0 0.11 -0.44 0.496 -0.936 0.936 -0.494 0.386 -0.88 0.826 -0.88 0.936 0 0.164 0.276 0.606 0.77 1.21 0.166 0.33 0.44 0.22 1.376 -0.496M21.68 16.968c0.33 -0.99 1.432 -1.76 2.532 -1.76 0.606 0 1.486 0.494 2.09 1.154l0.55 0.66 0.496 -0.604c1.376 -1.54 1.54 -3.686 0.44 -5.558 -0.826 -1.374 -2.366 -2.2 -4.512 -2.42 -1.154 -0.11 -1.43 -0.22 -2.036 -0.826l-0.44 -0.44 -0.22 0.33c-0.44 0.66 -1.376 2.806 -1.65 3.632 -0.386 1.266 -0.22 3.246 0.274 4.236 0.496 0.936 1.816 2.2 2.2 2.036 0.056 0.056 0.166 -0.166 0.276 -0.44M16.784 9.482c0.11 -0.274 0.386 -0.99 0.66 -1.54s0.496 -1.1 0.496 -1.266c0 -0.494 -0.55 -0.714 -2.036 -0.824 -1.32 -0.11 -1.432 -0.056 -1.706 0.22a1.16 1.16 0 0 0 -0.33 0.88c0 0.33 -0.056 0.936 -0.11 1.43 -0.11 1.156 0.054 1.376 1.21 1.54 1.706 0.112 1.65 0.112 1.816 -0.44m-1.706 -1.32c0 -0.936 0.11 -1.046 0.88 -1.046h0.716v1.54h-1.54v-0.494Zm3.466 32.08c-0.33 -0.332 -0.44 -0.552 -0.44 -1.102 0 -1.046 0.606 -1.65 1.596 -1.65 0.936 0 1.596 0.66 1.596 1.594 0 0.992 -0.606 1.54 -1.65 1.596 -0.552 0 -0.772 -0.11 -1.1 -0.44m10.618 0.166a1.612 1.612 0 0 1 0.99 -2.916c0.99 0 1.54 0.604 1.596 1.65 0 0.606 -0.056 0.77 -0.44 1.1 -0.386 0.33 -0.55 0.44 -1.1 0.44 -0.496 0 -0.826 -0.11 -1.046 -0.274"/>
</svg>
