<svg xmlns="http://www.w3.org/2000/svg" viewBox="0 0 48 48" width="48" height="48">
    <path fill="#d4d4d4" d="M24 4.056c-11.014 0 -19.944 8.93 -19.944 19.944S12.986 43.944 24 43.944s19.944 -8.93 19.944 -19.944S35.014 4.056 24 4.056m6.09 26.408c-4.61 0 -6.21 -2.078 -7.06 -4.664l-0.856 -2.666c-0.64 -1.944 -1.386 -3.464 -3.73 -3.464 -1.628 0 -3.28 1.174 -3.28 4.452 0 2.558 1.306 4.158 3.146 4.158 2.076 0 3.462 -1.548 3.462 -1.548l0.856 2.32s-1.44 1.414 -4.452 1.414c-3.73 -0.002 -5.81 -2.188 -5.81 -6.24 0 -4.212 2.08 -6.69 5.994 -6.69 3.546 0 5.332 1.28 6.452 4.744l0.88 2.666c0.64 1.946 1.76 3.36 4.45 3.36 1.814 0 2.774 -0.4 2.774 -1.388 0 -0.772 -0.454 -1.332 -1.812 -1.652l-1.814 -0.426c-2.212 -0.532 -3.092 -1.678 -3.092 -3.49 0 -2.906 2.346 -3.812 4.742 -3.812 2.724 0 4.372 0.986 4.586 3.386l-2.666 0.32c-0.104 -1.148 -0.798 -1.628 -2.08 -1.628 -1.172 0 -1.89 0.534 -1.89 1.44 0 0.8 0.346 1.28 1.52 1.544l1.702 0.374c2.296 0.534 3.522 1.652 3.522 3.812 0 2.664 -2.24 3.678 -5.544 3.678"/>
</svg>
